<?xml version="1.0" encoding="UTF-8" standalone="no"?>
<!-- Created with Inkscape (http://www.inkscape.org/) -->

<svg
   xmlns:dc="http://purl.org/dc/elements/1.1/"
   xmlns:cc="http://creativecommons.org/ns#"
   xmlns:rdf="http://www.w3.org/1999/02/22-rdf-syntax-ns#"
   xmlns:svg="http://www.w3.org/2000/svg"
   xmlns="http://www.w3.org/2000/svg"
   xmlns:sodipodi="http://sodipodi.sourceforge.net/DTD/sodipodi-0.dtd"
   xmlns:inkscape="http://www.inkscape.org/namespaces/inkscape"
   width="100mm"
   height="50mm"
   viewBox="0 0 100 50"
   version="1.1"
   id="svg8"
   sodipodi:docname="02.svg"
   inkscape:version="0.92.4 (5da689c313, 2019-01-14)">
  <defs
     id="defs2">
    <marker
       inkscape:stockid="TriangleOutM"
       orient="auto"
       refY="0.0"
       refX="0.0"
       id="TriangleOutM"
       style="overflow:visible"
       inkscape:isstock="true">
      <path
         id="path4669"
         d="M 5.77,0.0 L -2.88,5.0 L -2.88,-5.0 L 5.77,0.0 z "
         style="fill-rule:evenodd;stroke:#000000;stroke-width:1pt;stroke-opacity:1;fill:#000000;fill-opacity:1"
         transform="scale(0.4)" />
    </marker>
    <marker
       inkscape:stockid="TriangleOutS"
       orient="auto"
       refY="0.0"
       refX="0.0"
       id="TriangleOutS"
       style="overflow:visible"
       inkscape:isstock="true">
      <path
         id="path4672"
         d="M 5.77,0.0 L -2.88,5.0 L -2.88,-5.0 L 5.77,0.0 z "
         style="fill-rule:evenodd;stroke:#000000;stroke-width:1pt;stroke-opacity:1;fill:#000000;fill-opacity:1"
         transform="scale(0.2)" />
    </marker>
  </defs>
  <sodipodi:namedview
     id="base"
     pagecolor="#ffffff"
     bordercolor="#666666"
     borderopacity="1.0"
     inkscape:pageopacity="0.0"
     inkscape:pageshadow="2"
     inkscape:zoom="3.959798"
     inkscape:cx="165.75336"
     inkscape:cy="63.414936"
     inkscape:document-units="mm"
     inkscape:current-layer="layer1"
     showgrid="false"
     inkscape:window-width="1366"
     inkscape:window-height="728"
     inkscape:window-x="0"
     inkscape:window-y="40"
     inkscape:window-maximized="0" />
  <metadata
     id="metadata5">
    <rdf:RDF>
      <cc:Work
         rdf:about="">
        <dc:format>image/svg+xml</dc:format>
        <dc:type
           rdf:resource="http://purl.org/dc/dcmitype/StillImage" />
        <dc:title />
      </cc:Work>
    </rdf:RDF>
  </metadata>
  <g
     inkscape:label="Layer 1"
     inkscape:groupmode="layer"
     id="layer1"
     transform="translate(0,-247)">
    <g
       id="g867">
      <path
         inkscape:connector-curvature="0"
         id="path836"
         d="m 60.289878,273.26953 7.750816,12.42803 H 31.959309"
         style="fill:#e6e6e6;stroke:#000000;stroke-width:0.26458332px;stroke-linecap:butt;stroke-linejoin:miter;stroke-opacity:1" />
      <path
         inkscape:connector-curvature="0"
         id="path897-3"
         d="m 31.95931,285.69756 9.354433,-27.39512 26.726953,27.39512 z"
         style="fill:none;stroke:#000000;stroke-width:0.26499999;stroke-linecap:butt;stroke-linejoin:round;stroke-miterlimit:4;stroke-dasharray:none;stroke-opacity:1" />
      <path
         inkscape:connector-curvature="0"
         id="path899-6"
         d="m 41.313743,258.30244 18.976135,14.96709 7.750818,12.42803 z"
         style="fill:none;stroke:#000000;stroke-width:0.26499999;stroke-linecap:butt;stroke-linejoin:round;stroke-miterlimit:4;stroke-dasharray:none;stroke-opacity:1" />
      <path
         inkscape:connector-curvature="0"
         id="path834"
         d="M 31.959309,285.69756 60.289878,273.26953"
         style="fill:none;stroke:#000000;stroke-width:0.26499999;stroke-linecap:round;stroke-linejoin:miter;stroke-miterlimit:4;stroke-dasharray:0.26499999, 1.05999996;stroke-dashoffset:0;stroke-opacity:1" />
    </g>
    <g
       id="g996"
       transform="matrix(1.8687368,0,0,1.8687368,-11.612032,202.91636)"
       style="stroke-width:0.53512084">
      <g
         word-spacing="normal"
         letter-spacing="normal"
         font-size-adjust="none"
         font-stretch="normal"
         font-weight="normal"
         font-variant="normal"
         font-style="normal"
         stroke-miterlimit="10.433"
         xml:space="preserve"
         transform="matrix(0.07142857,0,0,-0.07142857,-12.5,75)"
         id="content"
         style="font-style:normal;font-variant:normal;font-weight:normal;font-stretch:normal;letter-spacing:normal;word-spacing:normal;text-anchor:start;fill:none;fill-opacity:1;fill-rule:evenodd;stroke:#000000;stroke-width:0.53512084;stroke-linecap:butt;stroke-linejoin:miter;stroke-miterlimit:10.43299961;stroke-dasharray:none;stroke-dashoffset:0;stroke-opacity:1"><path
           id="path991"
           d="m 478.83,424.73 v 0.12 0.13 l -0.01,0.12 v 0.11 l -0.01,0.12 -0.01,0.11 -0.01,0.11 -0.02,0.1 -0.03,0.21 -0.03,0.19 -0.05,0.18 -0.04,0.18 -0.06,0.16 -0.06,0.16 -0.06,0.15 -0.07,0.13 -0.07,0.13 -0.07,0.12 -0.08,0.12 -0.08,0.1 -0.08,0.1 -0.09,0.09 -0.08,0.08 -0.09,0.07 -0.09,0.07 -0.09,0.06 -0.1,0.05 -0.09,0.05 -0.09,0.04 -0.09,0.03 -0.09,0.03 -0.1,0.03 -0.09,0.01 -0.08,0.02 h -0.09 -0.09 c -1.25,0 -2.43,-1.29 -2.43,-2.39 0,-0.64 0.25,-0.93 0.79,-1.48 1.05,-1 1.69,-2.3 1.69,-4.09 0,-2.1 -3.03,-13.5 -8.86,-13.5 -2.54,0 -3.69,1.75 -3.69,4.32 0,2.8 1.35,6.44 2.9,10.57 0.34,0.86 0.59,1.54 0.59,2.5 0,2.23 -1.59,4.07 -4.09,4.07 -4.68,0 -6.58,-7.21 -6.58,-7.67 0,-0.5 0.5,-0.5 0.61,-0.5 0.5,0 0.54,0.11 0.79,0.91 1.44,5.03 3.58,6.17 5.03,6.17 0.4,0 1.25,0 1.25,-1.59 0,-1.25 -0.5,-2.6 -0.85,-3.49 -2.19,-5.78 -2.83,-8.08 -2.83,-10.22 0,-5.37 4.37,-6.17 6.67,-6.17 8.37,0 11.2,16.49 11.2,19.08 z"
           inkscape:connector-curvature="0"
           style="fill:#000000;stroke-width:0" /><path
           id="path993"
           d="m 497.62,409.87 v 0.71 l -0.02,0.68 -0.03,0.66 -0.04,0.64 -0.06,0.62 -0.07,0.6 -0.09,0.57 -0.11,0.56 -0.13,0.55 -0.15,0.53 -0.17,0.51 -0.19,0.5 -0.21,0.49 -0.24,0.48 -0.26,0.47 -0.14,0.23 -0.15,0.23 c -1.08,1.61 -3.23,3 -6.03,3 v -0.98 c 1.89,0 3.7,-1.14 4.33,-3.17 0.56,-1.88 0.59,-4.39 0.59,-7.43 0,-2.57 0,-5.15 -0.45,-7.34 -0.7,-3.17 -3.06,-3.94 -4.47,-3.94 v 0 c -1.59,0 -3.72,0.94 -4.42,3.8 -0.49,2.05 -0.49,4.91 -0.49,7.48 0,2.55 0,5.21 0.52,7.11 0.74,2.75 2.97,3.49 4.39,3.49 v 0.98 c -8.08,0 -8.08,-9.51 -8.08,-12.03 0,-2.5 0,-11.81 8.08,-11.81 8.09,0 8.09,9.31 8.09,11.81 z"
           inkscape:connector-curvature="0"
           style="fill:#000000;stroke-width:0" /></g>    </g>
    <g
       id="g1037"
       transform="matrix(1.8687368,0,0,1.8687368,2.4152217,168.68383)"
       style="stroke-width:0.53512084">
      <g
         word-spacing="normal"
         letter-spacing="normal"
         font-size-adjust="none"
         font-stretch="normal"
         font-weight="normal"
         font-variant="normal"
         font-style="normal"
         stroke-miterlimit="10.433"
         xml:space="preserve"
         transform="matrix(0.07142857,0,0,-0.07142857,-12.884372,75.873302)"
         id="g1035"
         style="font-style:normal;font-variant:normal;font-weight:normal;font-stretch:normal;letter-spacing:normal;word-spacing:normal;text-anchor:start;fill:none;fill-opacity:1;fill-rule:evenodd;stroke:#000000;stroke-width:0.53512084;stroke-linecap:butt;stroke-linejoin:miter;stroke-miterlimit:10.43299961;stroke-dasharray:none;stroke-dashoffset:0;stroke-opacity:1"><path
           id="path1031"
           d="m 478.83,424.73 v 0.12 0.13 l -0.01,0.12 v 0.11 l -0.01,0.12 -0.01,0.11 -0.01,0.11 -0.02,0.1 -0.03,0.21 -0.03,0.19 -0.05,0.18 -0.04,0.18 -0.06,0.16 -0.06,0.16 -0.06,0.15 -0.07,0.13 -0.07,0.13 -0.07,0.12 -0.08,0.12 -0.08,0.1 -0.08,0.1 -0.09,0.09 -0.08,0.08 -0.09,0.07 -0.09,0.07 -0.09,0.06 -0.1,0.05 -0.09,0.05 -0.09,0.04 -0.09,0.03 -0.09,0.03 -0.1,0.03 -0.09,0.01 -0.08,0.02 h -0.09 -0.09 c -1.25,0 -2.43,-1.29 -2.43,-2.39 0,-0.64 0.25,-0.93 0.79,-1.48 1.05,-1 1.69,-2.3 1.69,-4.09 0,-2.1 -3.03,-13.5 -8.86,-13.5 -2.54,0 -3.69,1.75 -3.69,4.32 0,2.8 1.35,6.44 2.9,10.57 0.34,0.86 0.59,1.54 0.59,2.5 0,2.23 -1.59,4.07 -4.09,4.07 -4.68,0 -6.58,-7.21 -6.58,-7.67 0,-0.5 0.5,-0.5 0.61,-0.5 0.5,0 0.54,0.11 0.79,0.91 1.44,5.03 3.58,6.17 5.03,6.17 0.4,0 1.25,0 1.25,-1.59 0,-1.25 -0.5,-2.6 -0.85,-3.49 -2.19,-5.78 -2.83,-8.08 -2.83,-10.22 0,-5.37 4.37,-6.17 6.67,-6.17 8.37,0 11.2,16.49 11.2,19.08 z"
           inkscape:connector-curvature="0"
           style="fill:#000000;stroke-width:0" /><path
           id="path1033"
           d="m 491.31,420.92 v 0.04 0.04 0.05 0.04 0.03 0.04 0.04 0.03 0.04 0.03 l -0.01,0.03 v 0.03 0.03 l -0.01,0.03 v 0.03 0.02 l -0.01,0.03 v 0.02 l -0.01,0.03 v 0.02 l -0.01,0.04 -0.02,0.04 -0.02,0.03 -0.02,0.03 -0.02,0.03 -0.02,0.03 -0.03,0.02 -0.03,0.02 -0.03,0.02 -0.04,0.01 -0.04,0.01 -0.05,0.02 h -0.02 -0.02 l -0.03,0.01 h -0.03 l -0.02,0.01 h -0.03 -0.03 -0.03 -0.03 l -0.04,0.01 h -0.03 -0.04 -0.03 -0.04 -0.04 -0.04 -0.04 -0.04 -0.05 -0.04 c -2.24,-2.2 -5.39,-2.23 -6.83,-2.23 v -1.25 c 0.84,0 3.14,0 5.04,0.97 v -17.77 c 0,-1.16 0,-1.61 -3.48,-1.61 h -1.31 v -1.25 c 0.62,0.03 4.9,0.14 6.2,0.14 1.08,0 5.47,-0.11 6.23,-0.14 v 1.25 h -1.32 c -3.49,0 -3.49,0.45 -3.49,1.61 z"
           inkscape:connector-curvature="0"
           style="fill:#000000;stroke-width:0" /></g>    </g>
    <g
       id="g1070"
       transform="matrix(1.8687368,0,0,1.8687368,24.064053,186.58015)"
       style="stroke-width:0.53512084">
      <g
         word-spacing="normal"
         letter-spacing="normal"
         font-size-adjust="none"
         font-stretch="normal"
         font-weight="normal"
         font-variant="normal"
         font-style="normal"
         stroke-miterlimit="10.433"
         xml:space="preserve"
         transform="matrix(0.07142857,0,0,-0.07142857,-12.5,75)"
         id="g1068"
         style="font-style:normal;font-variant:normal;font-weight:normal;font-stretch:normal;letter-spacing:normal;word-spacing:normal;text-anchor:start;fill:none;fill-opacity:1;fill-rule:evenodd;stroke:#000000;stroke-width:0.53512084;stroke-linecap:butt;stroke-linejoin:miter;stroke-miterlimit:10.43299961;stroke-dasharray:none;stroke-dashoffset:0;stroke-opacity:1"><path
           id="path1064"
           d="m 478.83,424.73 v 0.12 0.13 l -0.01,0.12 v 0.11 l -0.01,0.12 -0.01,0.11 -0.01,0.11 -0.02,0.1 -0.03,0.21 -0.03,0.19 -0.05,0.18 -0.04,0.18 -0.06,0.16 -0.06,0.16 -0.06,0.15 -0.07,0.13 -0.07,0.13 -0.07,0.12 -0.08,0.12 -0.08,0.1 -0.08,0.1 -0.09,0.09 -0.08,0.08 -0.09,0.07 -0.09,0.07 -0.09,0.06 -0.1,0.05 -0.09,0.05 -0.09,0.04 -0.09,0.03 -0.09,0.03 -0.1,0.03 -0.09,0.01 -0.08,0.02 h -0.09 -0.09 c -1.25,0 -2.43,-1.29 -2.43,-2.39 0,-0.64 0.25,-0.93 0.79,-1.48 1.05,-1 1.69,-2.3 1.69,-4.09 0,-2.1 -3.03,-13.5 -8.86,-13.5 -2.54,0 -3.69,1.75 -3.69,4.32 0,2.8 1.35,6.44 2.9,10.57 0.34,0.86 0.59,1.54 0.59,2.5 0,2.23 -1.59,4.07 -4.09,4.07 -4.68,0 -6.58,-7.21 -6.58,-7.67 0,-0.5 0.5,-0.5 0.61,-0.5 0.5,0 0.54,0.11 0.79,0.91 1.44,5.03 3.58,6.17 5.03,6.17 0.4,0 1.25,0 1.25,-1.59 0,-1.25 -0.5,-2.6 -0.85,-3.49 -2.19,-5.78 -2.83,-8.08 -2.83,-10.22 0,-5.37 4.37,-6.17 6.67,-6.17 8.37,0 11.2,16.49 11.2,19.08 z"
           inkscape:connector-curvature="0"
           style="fill:#000000;stroke-width:0" /><path
           id="path1066"
           d="m 497.23,405.11 h -1.18 c -0.1,-0.77 -0.46,-2.83 -0.91,-3.18 -0.26,-0.2 -2.95,-0.2 -3.44,-0.2 h -6.42 c 3.66,3.23 4.88,4.2 6.97,5.84 2.58,2.07 4.98,4.22 4.98,7.54 0,4.21 -3.68,6.79 -8.15,6.79 -4.31,0 -7.25,-3.03 -7.25,-6.23 0,-1.78 1.5,-1.96 1.86,-1.96 0.83,0 1.84,0.6 1.84,1.85 0,0.62 -0.25,1.84 -2.06,1.84 1.08,2.47 3.45,3.24 5.09,3.24 3.49,0 5.3,-2.71 5.3,-5.53 0,-3.04 -2.16,-5.44 -3.28,-6.69 l -8.39,-8.3 c -0.36,-0.31 -0.36,-0.39 -0.36,-1.36 h 14.36 z"
           inkscape:connector-curvature="0"
           style="fill:#000000;stroke-width:0" /></g>    </g>
    <g
       id="g1107"
       transform="matrix(1.8687368,0,0,1.8687368,32.210402,201.01271)"
       style="stroke-width:0.53512084">
      <g
         word-spacing="normal"
         letter-spacing="normal"
         font-size-adjust="none"
         font-stretch="normal"
         font-weight="normal"
         font-variant="normal"
         font-style="normal"
         stroke-miterlimit="10.433"
         xml:space="preserve"
         transform="matrix(0.07142857,0,0,-0.07142857,-12.5,75)"
         id="g1105"
         style="font-style:normal;font-variant:normal;font-weight:normal;font-stretch:normal;letter-spacing:normal;word-spacing:normal;text-anchor:start;fill:none;fill-opacity:1;fill-rule:evenodd;stroke:#000000;stroke-width:0.53512084;stroke-linecap:butt;stroke-linejoin:miter;stroke-miterlimit:10.43299961;stroke-dasharray:none;stroke-dashoffset:0;stroke-opacity:1"><path
           id="path1101"
           d="m 478.83,424.73 v 0.12 0.13 l -0.01,0.12 v 0.11 l -0.01,0.12 -0.01,0.11 -0.01,0.11 -0.02,0.1 -0.03,0.21 -0.03,0.19 -0.05,0.18 -0.04,0.18 -0.06,0.16 -0.06,0.16 -0.06,0.15 -0.07,0.13 -0.07,0.13 -0.07,0.12 -0.08,0.12 -0.08,0.1 -0.08,0.1 -0.09,0.09 -0.08,0.08 -0.09,0.07 -0.09,0.07 -0.09,0.06 -0.1,0.05 -0.09,0.05 -0.09,0.04 -0.09,0.03 -0.09,0.03 -0.1,0.03 -0.09,0.01 -0.08,0.02 h -0.09 -0.09 c -1.25,0 -2.43,-1.29 -2.43,-2.39 0,-0.64 0.25,-0.93 0.79,-1.48 1.05,-1 1.69,-2.3 1.69,-4.09 0,-2.1 -3.03,-13.5 -8.86,-13.5 -2.54,0 -3.69,1.75 -3.69,4.32 0,2.8 1.35,6.44 2.9,10.57 0.34,0.86 0.59,1.54 0.59,2.5 0,2.23 -1.59,4.07 -4.09,4.07 -4.68,0 -6.58,-7.21 -6.58,-7.67 0,-0.5 0.5,-0.5 0.61,-0.5 0.5,0 0.54,0.11 0.79,0.91 1.44,5.03 3.58,6.17 5.03,6.17 0.4,0 1.25,0 1.25,-1.59 0,-1.25 -0.5,-2.6 -0.85,-3.49 -2.19,-5.78 -2.83,-8.08 -2.83,-10.22 0,-5.37 4.37,-6.17 6.67,-6.17 8.37,0 11.2,16.49 11.2,19.08 z"
           inkscape:connector-curvature="0"
           style="fill:#000000;stroke-width:0" /><path
           id="path1103"
           d="m 489.16,410.4 h 0.25 l 0.25,-0.02 0.24,-0.03 0.24,-0.04 0.23,-0.05 0.23,-0.06 0.22,-0.07 0.21,-0.08 0.21,-0.1 0.2,-0.1 0.2,-0.12 0.19,-0.12 0.18,-0.14 0.18,-0.15 0.16,-0.16 0.16,-0.17 0.15,-0.18 0.15,-0.19 0.13,-0.2 0.13,-0.22 0.11,-0.22 0.11,-0.24 0.1,-0.24 0.09,-0.26 0.08,-0.27 0.07,-0.28 0.06,-0.29 0.05,-0.3 0.04,-0.31 0.03,-0.32 0.01,-0.33 0.01,-0.35 c 0,-4.33 -2.52,-5.61 -4.53,-5.61 -1.39,0 -4.47,0.38 -5.92,2.44 1.62,0.06 2.01,1.22 2.01,1.95 0,1.11 -0.84,1.91 -1.92,1.91 -0.97,0 -1.95,-0.59 -1.95,-2.02 0,-3.28 3.62,-5.4 7.84,-5.4 4.84,0 8.19,3.25 8.19,6.73 0,2.72 -2.22,5.44 -6.07,6.24 3.66,1.33 4.99,3.93 4.99,6.06 0,2.75 -3.17,4.81 -7.03,4.81 -3.88,0 -6.83,-1.89 -6.83,-4.67 0,-1.19 0.77,-1.84 1.81,-1.84 1.08,0 1.77,0.79 1.77,1.76 0,1.02 -0.69,1.75 -1.77,1.81 1.22,1.55 3.61,1.93 4.91,1.93 1.56,0 3.76,-0.77 3.76,-3.8 0,-1.47 -0.48,-3.06 -1.39,-4.14 -1.15,-1.33 -2.12,-1.41 -3.87,-1.5 -0.88,-0.08 -0.94,-0.08 -1.11,-0.11 -0.08,0 -0.36,-0.06 -0.36,-0.45 0,-0.49 0.31,-0.49 0.91,-0.49 z"
           inkscape:connector-curvature="0"
           style="fill:#000000;stroke-width:0" /></g>    </g>
  </g>
</svg>
